<svg id="Layer_1" data-name="Layer 1" xmlns="http://www.w3.org/2000/svg" viewBox="0 0 1080 1080"><defs><style>.cls-1{fill:#2b3990;}</style></defs><path class="cls-1" d="M835.79,312.87H704.47V250.11a67.69,67.69,0,0,0-67.61-67.62H191.25a67.69,67.69,0,0,0-67.62,67.62V608.37A67.69,67.69,0,0,0,191.25,676h1.41A154.75,154.75,0,0,0,178,741.9c0,85.8,69.81,155.61,155.61,155.61S489.23,827.7,489.23,741.9A154.75,154.75,0,0,0,474.57,676h127a154.54,154.54,0,0,0-14.67,65.91c0,85.8,69.81,155.61,155.61,155.61S898.15,827.7,898.15,741.9A154.75,154.75,0,0,0,883.49,676h14.89a58.05,58.05,0,0,0,58-58V433.45ZM333.61,844.51A102.55,102.55,0,1,1,436.23,741.9,102.73,102.73,0,0,1,333.61,844.51ZM845.15,741.9a102.75,102.75,0,1,1-24-65.91A102.73,102.73,0,0,1,845.15,741.9ZM903.37,618a5,5,0,0,1-5,5H842.8a155.53,155.53,0,0,0-138.33-32V365.87H813.83l89.54,89.54Z"/></svg>