<svg width="110" height="135" viewBox="0 0 110 135" fill="none" xmlns="http://www.w3.org/2000/svg">
<path d="M56.2299 77.039V114.582C61.2065 109.66 76.5969 106.394 90.6249 106.023L90.621 68.4804C76.594 68.8515 61.2029 72.1171 56.2299 77.039ZM82.7379 98.863C78.8395 99.3552 75.0738 100.05 71.7029 100.925C68.5388 101.746 65.7341 102.722 63.5037 103.836C62.8045 104.183 61.9529 103.898 61.6053 103.199C61.2576 102.5 61.5428 101.648 62.242 101.301C64.6287 100.109 67.6248 99.0662 70.992 98.1912C74.4725 97.2888 78.3553 96.5701 82.379 96.0623C83.1525 95.9646 83.8595 96.5115 83.9571 97.285C84.0587 98.0584 83.5114 98.7654 82.7379 98.863ZM82.7379 89.4763C78.8317 89.9685 75.0699 90.6677 71.7029 91.5427C68.5271 92.3708 65.7224 93.3513 63.5076 94.4607C62.8123 94.8084 61.9646 94.5271 61.617 93.8318C61.2693 93.1365 61.5506 92.2888 62.2459 91.9412C64.6482 90.7342 67.6404 89.6834 70.9959 88.8123C74.4725 87.9099 78.3553 87.1873 82.3869 86.6795C83.1604 86.5818 83.8674 87.1287 83.965 87.9022C84.0588 88.6717 83.5114 89.3787 82.7379 89.4763ZM82.7379 80.0935C78.8317 80.5857 75.0699 81.2849 71.7069 82.1599C68.5389 82.988 65.7381 83.9685 63.5116 85.0896C62.8163 85.4412 61.9647 85.1599 61.6132 84.4646C61.2616 83.7693 61.5429 82.9177 62.2382 82.5662C64.6405 81.3553 67.6366 80.3045 70.9999 79.4256C74.4726 78.5193 78.3515 77.8006 82.3829 77.2928C83.1563 77.1951 83.8634 77.742 83.961 78.5155C84.0587 79.2889 83.5114 79.992 82.7379 80.0935ZM19.0039 106.027C33.0309 106.399 48.4219 109.66 53.3989 114.586L53.395 77.0391C48.4184 72.1133 33.032 68.8516 19 68.4805L19.0039 106.027ZM25.6641 78.5155C25.7618 77.7421 26.4688 77.1952 27.2422 77.2928C31.2774 77.8006 35.1563 78.5194 38.6252 79.4256C41.9885 80.3045 44.9807 81.3553 47.3869 82.5662C48.0822 82.9178 48.3635 83.7654 48.0119 84.4646C47.6603 85.1599 46.8127 85.4412 46.1135 85.0896C43.8869 83.9685 41.0823 82.9841 37.9182 82.1599C34.5549 81.281 30.7971 80.5857 26.8872 80.0935C26.1138 79.9919 25.5665 79.2889 25.6641 78.5155ZM25.6641 87.9022C25.7618 87.1288 26.4688 86.5819 27.2422 86.6795C31.2734 87.1873 35.1563 87.9061 38.6332 88.8123C41.9887 89.6873 44.9809 90.7342 47.3832 91.9412C48.0785 92.2889 48.3637 93.1365 48.0121 93.8318C47.6645 94.5271 46.8168 94.8123 46.1215 94.4607C43.9067 93.3474 41.102 92.3669 37.9262 91.5427C34.559 90.6677 30.7973 89.9685 26.8912 89.4763C26.1139 89.3787 25.5665 88.6756 25.6641 87.9022ZM25.6641 97.285C25.7618 96.5116 26.4688 95.9647 27.2422 96.0623C31.2656 96.5701 35.1524 97.2889 38.6292 98.1912C41.9964 99.0662 44.9925 100.109 47.3792 101.301C48.0784 101.648 48.3636 102.5 48.0159 103.199C47.6683 103.898 46.8167 104.183 46.1175 103.836C43.887 102.722 41.0823 101.746 37.9183 100.926C34.5472 100.051 30.7855 99.3552 26.8833 98.863C26.1138 98.7654 25.5665 98.0584 25.6641 97.285ZM40.0591 36.574C40.0591 28.5271 46.6646 22 54.8131 22C62.9616 22 69.5671 28.5234 69.5671 36.574C69.5671 44.6209 62.9616 51.148 54.8131 51.148C46.6647 51.1441 40.0591 44.6207 40.0591 36.574ZM66.8291 68.949C63.3252 69.9177 58.1025 71.6287 54.8131 74.4998C51.524 71.6326 46.3014 69.9178 42.7971 68.949C38.4885 67.7576 33.9026 66.9178 29.3051 66.3787C30.8637 58.6951 36.6801 52.5117 44.1601 50.4217C47.1171 52.6522 50.8085 53.9764 54.8121 53.9764C58.8157 53.9764 62.5074 52.6522 65.4641 50.4217C72.9446 52.5115 78.7611 58.6951 80.3191 66.3787C75.7175 66.9178 71.1355 67.7576 66.8271 68.949H66.8291Z" fill="black"/>
</svg>
