<svg width="110" height="135" viewBox="0 0 110 135" fill="none" xmlns="http://www.w3.org/2000/svg">
<path d="M42.9693 57.9841V55.3903C42.9693 54.781 43.4615 54.2887 44.0709 54.2887C44.6803 54.2887 45.1725 54.7809 45.1725 55.3903V57.9841C45.1725 58.5935 44.6803 59.0857 44.0709 59.0857C43.4615 59.0857 42.9693 58.5936 42.9693 57.9841ZM53.6603 59.0857C54.2697 59.0857 54.7619 58.5936 54.7619 57.9841V55.3903C54.7619 54.781 54.2697 54.2887 53.6603 54.2887C53.0509 54.2887 52.5587 54.7809 52.5587 55.3903V57.9841C52.5587 58.5935 53.0509 59.0857 53.6603 59.0857ZM44.0705 69.1717C44.6799 69.1717 45.1721 68.6796 45.1721 68.0701V65.4763C45.1721 64.8709 44.6799 64.3747 44.0705 64.3747C43.4611 64.3747 42.9689 64.8669 42.9689 65.4763V68.0701C42.9689 68.6795 43.4611 69.1717 44.0705 69.1717ZM53.6603 69.1717C54.2697 69.1717 54.7619 68.6796 54.7619 68.0701V65.4763C54.7619 64.8709 54.2697 64.3747 53.6603 64.3747C53.0509 64.3747 52.5587 64.8669 52.5587 65.4763V68.0701C52.5587 68.6795 53.0509 69.1717 53.6603 69.1717ZM44.0705 79.2657C44.6799 79.2657 45.1721 78.7736 45.1721 78.1641V75.5703C45.1721 74.961 44.6799 74.4687 44.0705 74.4687C43.4611 74.4687 42.9689 74.957 42.9689 75.5703V78.1641C42.9689 78.7696 43.4611 79.2657 44.0705 79.2657ZM53.6603 79.2657C54.2697 79.2657 54.7619 78.7736 54.7619 78.1641V75.5703C54.7619 74.961 54.2697 74.4687 53.6603 74.4687C53.0509 74.4687 52.5587 74.957 52.5587 75.5703V78.1641C52.5587 78.7696 53.0509 79.2657 53.6603 79.2657ZM77.0043 66.6487C78.8051 65.2385 81.0824 64.7034 83.2621 65.0667L82.8949 65.223C82.3324 65.4574 82.0746 66.1058 82.309 66.6683C82.4848 67.0863 82.8949 67.3402 83.3246 67.3402C83.4691 67.3402 83.6136 67.3128 83.7543 67.2503L86.7152 65.9964C86.9847 65.8792 87.1956 65.6644 87.3089 65.391C87.3245 65.3597 87.3206 65.3206 87.3285 65.2855C87.3597 65.1878 87.3792 65.0902 87.3831 64.9964V64.9456C87.3831 64.7386 87.3245 64.5394 87.2191 64.3597L86.0238 61.5863C85.7816 61.0277 85.1371 60.7699 84.5746 61.0121C84.016 61.2543 83.7582 61.9027 83.9965 62.4574L84.2308 63.0004C81.2699 62.3168 78.1097 62.9808 75.6488 64.9105C71.7035 67.9847 70.5824 73.4144 72.9808 77.8205C73.1801 78.1877 73.559 78.3987 73.9496 78.3987C74.1254 78.3987 74.309 78.3557 74.473 78.262C75.0082 77.9729 75.2035 77.301 74.9144 76.7697C73.0316 73.3167 73.9106 69.0588 77.0043 66.6487ZM89.4023 67.6253C88.8672 67.9183 88.6718 68.5823 88.9609 69.1175C90.8437 72.5745 89.9648 76.8284 86.8711 79.2385C85.0703 80.6526 82.8008 81.1838 80.6211 80.8205L80.9922 80.6643C81.5508 80.4221 81.8047 79.7697 81.5664 79.2151C81.3242 78.6565 80.6758 78.3986 80.1172 78.6447L77.1797 79.9181C77.086 79.9611 77.0039 80.0158 76.9258 80.0783C76.9102 80.09 76.8946 80.1056 76.8789 80.1174C76.8516 80.1408 76.8242 80.1681 76.8008 80.1955C76.7344 80.2658 76.6758 80.34 76.6289 80.426C76.4219 80.8049 76.4688 81.2502 76.6992 81.5783L77.8594 84.2971C78.0391 84.7189 78.4454 84.9689 78.8711 84.9689C79.0157 84.9689 79.1602 84.9377 79.3047 84.8791C79.8633 84.6408 80.125 83.9924 79.8868 83.4338L79.6524 82.8791C80.4063 83.0549 81.1719 83.1486 81.9376 83.1486C84.1759 83.1486 86.3985 82.4143 88.2345 80.9728C92.1759 77.8986 93.3009 72.4689 90.8986 68.0628C90.6056 67.5316 89.9375 67.3323 89.4023 67.6253ZM99.9963 71.5941V74.2933C99.9963 75.1917 99.4924 75.9808 98.7111 76.305L97.2697 76.8636C96.9103 78.3011 96.3283 79.6917 95.5392 81.012L96.1681 82.4222C96.5041 83.1917 96.3048 84.1058 95.6564 84.7464L94.5978 85.805V103.496C94.5978 104.105 94.1056 104.598 93.4962 104.598L13.8282 104.602C13.2188 104.602 12.7266 104.109 12.7266 103.5L12.7227 72.0039H11.1016C10.4922 72.0039 10 71.5117 10 70.9023V65.5664C10 64.9609 10.4922 64.4648 11.1016 64.4648H35.4926V42.3868C35.4926 41.7774 35.9848 41.2852 36.5942 41.2852H43.27V39.211C43.27 38.6016 43.7622 38.1094 44.3716 38.1094H49.3833L49.3872 33.1016C49.3872 32.4922 49.8794 32 50.4888 32H56.8404C57.4498 32 57.942 32.4922 57.942 33.1016V38.1133H62.9537C63.5592 38.1133 64.0553 38.6016 64.0553 39.2149V41.2891H70.7311C71.3405 41.2891 71.8327 41.7813 71.8327 42.3907V58.5787C72.0515 58.5943 72.2663 58.6412 72.4694 58.731L73.8639 59.3404C75.153 58.5709 76.5514 57.9966 78.0358 57.6138L78.5827 56.188C78.8718 55.4185 79.6765 54.8989 80.5827 54.8989H83.3054C84.2117 54.8989 85.0202 55.4184 85.3093 56.1958L85.8562 57.6099C87.3367 57.9927 88.739 58.5709 90.0281 59.3365L91.4226 58.7271C92.196 58.3873 93.1765 58.6021 93.7703 59.2428L95.6648 61.1372C96.3015 61.774 96.5046 62.6842 96.1843 63.4576L95.5476 64.8795C96.3367 66.1998 96.9148 67.5942 97.2781 69.0317L98.7039 69.5982C99.4617 69.8638 99.9963 70.6722 99.9963 71.5941ZM45.4763 44.4851H50.488C51.0974 44.4851 51.5896 44.9773 51.5896 45.5867V50.5789H55.738V45.5867C55.738 44.9773 56.2302 44.4851 56.8396 44.4851H61.8513V40.3132H56.8396C56.2302 40.3132 55.738 39.821 55.738 39.2116L55.7341 34.1999H51.5857V39.2116C51.5857 39.821 51.0935 40.3132 50.4841 40.3132H45.4724L45.4763 44.4851ZM37.6951 102.399H47.1795V92.7858H45.7967C45.1912 92.7858 44.6951 92.2936 44.6951 91.6842C44.6951 91.0748 45.1873 90.5826 45.7967 90.5826H61.5237C62.1331 90.5826 62.6253 91.0748 62.6253 91.6842C62.6253 92.2936 62.1331 92.7858 61.5237 92.7858H60.1409V102.399H69.6253V86.1571L68.2191 84.7509C67.5746 84.1064 67.3754 83.1962 67.7074 82.4306L68.3363 81.0126C67.5472 79.6923 66.9691 78.2978 66.6058 76.8642L65.1878 76.3173C64.848 76.1767 64.5706 75.9579 64.3519 75.6806V78.165C64.3519 78.7744 63.8597 79.2666 63.2503 79.2666C62.6409 79.2666 62.1487 78.7705 62.1487 78.1611V75.5673C62.1487 74.9579 62.6409 74.4657 63.2503 74.4657C63.5003 74.4657 63.7307 74.5516 63.9143 74.6923C63.8909 74.5634 63.8753 74.4305 63.8753 74.2938V71.5946C63.8753 70.6727 64.4143 69.8641 65.2151 69.5829L66.6018 69.0321C66.9611 67.5946 67.5432 66.2001 68.3323 64.8798L67.7112 63.4931C67.3791 62.6846 67.5823 61.7743 68.2151 61.1376L69.6213 59.7353L69.6252 43.4893H64.051V45.587C64.051 46.1964 63.5588 46.6886 62.9494 46.6886H57.9377V51.6769C57.9377 52.2863 57.4455 52.7785 56.8361 52.7785H50.4845C49.8751 52.7785 49.3829 52.2864 49.3829 51.6769V46.6886H44.3712C43.7618 46.6886 43.2696 46.1965 43.2696 45.587V43.4893H37.6954L37.6951 102.399ZM71.8281 102.399H81.0117V90.9931H80.5781C79.6719 90.9931 78.8672 90.4736 78.5742 89.6962L78.0312 88.2821C76.5508 87.8993 75.1485 87.3212 73.8594 86.5555L72.4688 87.1649C72.2969 87.2508 72.0703 87.3016 71.832 87.3211L71.8281 102.399ZM49.3831 92.7858V102.399H57.9378V92.7858H49.3831ZM26.3131 72.0048V102.4H35.4967V72.0048H26.3131ZM12.2081 69.8017H35.4931V66.6689H12.2081V69.8017ZM14.9308 102.4H24.1105V72.0047H14.9308V102.4ZM92.3958 102.4V87.3137C92.0403 87.3489 91.6771 87.2981 91.3646 87.1418L90.0208 86.5559C88.7317 87.3176 87.3333 87.8997 85.8489 88.2825L85.2981 89.7083C85.013 90.4778 84.2043 90.9974 83.2981 90.9974H83.2122V102.403L92.3958 102.4ZM97.7942 71.6107L95.9192 70.8724C95.5716 70.7357 95.3215 70.4349 95.2434 70.0677C94.9192 68.5013 94.2903 66.9857 93.3684 65.5599C93.1653 65.2474 93.134 64.849 93.2903 64.5091L94.1028 62.7044L92.1966 60.7903L90.3763 61.5872C90.0365 61.7357 89.6458 61.7044 89.3372 61.5013C87.97 60.6146 86.4388 59.9818 84.7981 59.6224C84.4348 59.5443 84.1379 59.2864 84.0051 58.9427L83.302 57.1068L80.595 57.099L79.888 58.9428C79.7552 59.2865 79.4583 59.5443 79.095 59.6225C77.4505 59.9818 75.9231 60.6147 74.552 61.5014C74.2395 61.7006 73.8489 61.7357 73.5129 61.5873L71.6652 60.7748L71.6613 60.7787C71.5793 60.9076 71.4699 61.0209 71.341 61.1068L69.7863 62.6966C69.7863 62.7005 69.7824 62.7005 69.7824 62.7005L70.5988 64.513C70.7512 64.8529 70.7238 65.2474 70.5207 65.5638C69.5988 66.9857 68.9699 68.5013 68.6418 70.0716C68.5676 70.4349 68.3137 70.7357 67.966 70.8763L66.0949 71.6146L66.091 74.3021V74.3099L67.9543 75.0248C68.3059 75.1615 68.5598 75.4623 68.6379 75.8334C68.9621 77.3998 69.5949 78.9193 70.5168 80.3373C70.7199 80.6498 70.7512 81.0404 70.5988 81.3842L69.7902 83.1967L71.6925 85.1108L73.5089 84.31C73.8488 84.1615 74.2394 84.1928 74.548 84.392C75.9191 85.2787 77.4464 85.9115 79.091 86.2748C79.4543 86.3529 79.7512 86.6107 79.884 86.9545L80.5871 88.7904L83.2941 88.7982L84.0012 86.9544C84.134 86.6068 84.4308 86.3529 84.7941 86.2747C86.4386 85.9153 87.966 85.2825 89.3332 84.3919C89.6457 84.1927 90.0363 84.1614 90.3723 84.3099L92.2278 85.1224L92.5716 84.7708C92.6536 84.638 92.763 84.5286 92.8919 84.4427L94.1028 83.2005L93.2942 81.3802C93.1419 81.0365 93.1731 80.6458 93.3762 80.3333C94.2981 78.9114 94.927 77.3958 95.2512 75.8294C95.3294 75.4583 95.5872 75.1575 95.9348 75.0208L97.7942 74.306V71.6107ZM63.2552 59.0877C63.8646 59.0877 64.3568 58.5955 64.3568 57.9861V55.3923C64.3568 54.7829 63.8646 54.2907 63.2552 54.2907C62.6458 54.2907 62.1536 54.7829 62.1536 55.3923V57.9861C62.1497 58.5955 62.6458 59.0877 63.2552 59.0877ZM63.2552 69.1737C63.8646 69.1737 64.3568 68.6815 64.3568 68.0721V65.4783C64.3568 64.8728 63.8646 64.3767 63.2552 64.3767C62.6458 64.3767 62.1536 64.8689 62.1536 65.4783V68.0721C62.1497 68.6815 62.6458 69.1737 63.2552 69.1737Z" fill="black"/>
</svg>
