<svg width="110" height="135" viewBox="0 0 110 135" fill="none" xmlns="http://www.w3.org/2000/svg">
<path fill-rule="evenodd" clip-rule="evenodd" d="M12.2543 75.8274H19.977L22.4184 56.7614H22.4223C22.4262 56.6286 22.4418 56.4997 22.4731 56.3668L23.895 45.2808L23.8911 45.2848C24.0356 44.1598 24.9888 43.32 26.1216 43.32V43.316H38.6216C39.8286 43.316 40.8247 44.2692 40.8716 45.4762L42.27 56.3712H42.2739C42.3012 56.5002 42.3168 56.633 42.3247 56.7658L44.7661 75.8318H51.6997L73.5627 58.0778C74.215 57.4528 75.176 57.2809 76.0041 57.6364C76.8322 57.9918 77.3713 58.8083 77.3713 59.7067V73.3547L96.1913 58.0777C96.8436 57.4527 97.8046 57.2808 98.6327 57.6363C99.4608 57.9917 99.9999 58.8082 99.9999 59.7066V110.191C99.9999 111.437 98.9921 112.444 97.746 112.444H12.254C11.6563 112.444 11.0821 112.206 10.6602 111.784C10.2383 111.362 10 110.788 10 110.19V78.0815C10 76.8393 11.0082 75.8274 12.2543 75.8274ZM44.8563 42.7884C48.1571 37.8275 57.0633 42.9134 63.1843 38.2884V38.2923C64.1569 37.5345 64.3405 36.14 63.5984 35.1556C62.8562 34.1712 61.4617 33.9681 60.4695 34.6986C58.6883 36.0424 55.9303 35.9798 53.1842 35.9174C48.6569 35.8158 44.1609 35.7181 41.1023 40.3041C40.4187 41.3393 40.7038 42.7338 41.739 43.4213C42.7742 44.1048 44.1687 43.8236 44.8562 42.7845L44.8563 42.7884ZM29.2543 37.7415C28.5668 38.7767 27.1723 39.0618 26.1371 38.3782C25.098 37.6907 24.8129 36.2962 25.5004 35.2571C35.0434 20.8821 54.2424 32.0579 64.3324 24.4371C65.3246 23.7066 66.7191 23.9137 67.4613 24.8941C68.2035 25.8785 68.016 27.2769 67.0433 28.0308C55.3163 36.8863 37.0003 26.1126 29.2543 37.7415ZM82.0553 80.5736V89.3197L90.8014 89.3236V80.5775L82.0553 80.5736ZM59.4263 80.5736V89.3197H68.1724V80.5775L59.4263 80.5736ZM35.3913 86.2416V94.9877H44.1374V86.2416H35.3913ZM20.6023 86.2416V94.9877H29.3484V86.2416H20.6023ZM27.2273 54.5966H37.5163L36.6491 47.8193H28.1022L27.235 54.5966H27.2273ZM38.0903 59.1044H26.6493L24.5048 75.8274H40.2348L38.0903 59.1044ZM77.3713 79.1474V107.936H95.4923V64.4364L77.3713 79.1474ZM54.7423 79.1474V107.936H72.8593V64.4364L54.7383 79.1474H54.7423ZM50.2345 80.3388L14.5075 80.3349V107.937H50.2305L50.2345 80.3388Z" fill="black"/>
</svg>
