<svg width="62" height="78" viewBox="0 0 62 78" fill="none" xmlns="http://www.w3.org/2000/svg">
<g clip-path="url(#clip0_397_20)">
<path d="M32 14H30V16H32V14Z" fill="black"/>
<path d="M36 14H34V16H36V14Z" fill="black"/>
<path d="M28 14H26V16H28V14Z" fill="black"/>
<path d="M62 32V26H58V24H60V22H54V24H56V26H50V24H52V22H46V24H48V26H41.444C41.788 25.409 42 24.732 42 24C42 23.49 41.802 23.029 41.487 22.676C41.811 22.197 42 21.62 42 21C42 20.38 41.811 19.803 41.487 19.324C41.802 18.971 42 18.51 42 18V17C42 12.037 37.962 8 33 8H29C24.038 8 20 12.037 20 17V18C20 18.51 20.198 18.971 20.513 19.324C20.189 19.803 20 20.38 20 21C20 21.62 20.189 22.197 20.513 22.676C20.198 23.029 20 23.49 20 24C20 24.732 20.212 25.409 20.556 26H14V24H16V22H10V24H12V26H6V24H8V22H2V24H4V26H0V32H2V44H0V50H2V70H60V50H62V44H60V32H62ZM22 21C22 20.448 22.449 20 23 20H39C39.551 20 40 20.448 40 21C40 21.552 39.551 22 39 22H23C22.449 22 22 21.552 22 21ZM22 17C22 13.141 25.14 10 29 10H33C36.86 10 40 13.141 40 17L40.001 18H22V17ZM22 24H40C40 25.103 39.103 26 38 26H24C22.897 26 22 25.103 22 24ZM2 28H60V30H2V28ZM2 46H15.522C15.109 46.616 14.778 47.289 14.525 48H2V46ZM20 52V68H18V52H20ZM40 52V64H38V54H24V64H22V52H40ZM30 62V64H26V56H30V60H28V62H30ZM32 62H34V60H32V56H36V64H32V62ZM22 66H40V68H22V66ZM42 52H44V68H42V52ZM45.929 50H39.941C39.672 47.583 38.443 45.453 36.644 44H39C42.521 44 45.442 46.612 45.929 50ZM37.92 50H24.08C24.568 46.614 27.481 44 31 44C34.519 44 37.432 46.614 37.92 50ZM22.059 50H16.071C16.558 46.612 19.479 44 23 44H25.356C23.557 45.453 22.328 47.583 22.059 50ZM4 50H14.059C14.022 50.329 14 50.662 14 51V52H16V68H4V50ZM58 68H46V52H48V51C48 50.662 47.978 50.329 47.941 50H58V68ZM60 48H47.475C47.223 47.289 46.892 46.616 46.478 46H60V48ZM58 44H44.644C43.099 42.752 41.136 42 39 42H23C20.863 42 18.901 42.752 17.356 44H4V32H58V44Z" fill="black"/>
<path d="M30 34H20V40H30V34ZM28 38H22V36H28V38Z" fill="black"/>
<path d="M18 40V34H8V40H18ZM10 36H16V38H10V36Z" fill="black"/>
<path d="M54 34H44V40H54V34ZM52 38H46V36H52V38Z" fill="black"/>
<path d="M42 34H32V40H42V34ZM40 38H34V36H40V38Z" fill="black"/>
<path d="M6 64H14V54H6V64ZM8 62V60H12V62H8ZM12 56V58H8V56H12Z" fill="black"/>
<path d="M48 64H56V54H48V64ZM50 62V60H54V62H50ZM54 56V58H50V56H54Z" fill="black"/>
</g>
<defs>
<clipPath id="clip0_397_20">
<rect width="62" height="77.5" fill="white"/>
</clipPath>
</defs>
</svg>
