<svg width="110" height="135" viewBox="0 0 110 135" fill="none" xmlns="http://www.w3.org/2000/svg">
<path d="M80.9273 68.9873H29.0724C28.7954 68.9873 28.5268 69.1003 28.3265 69.3004C28.1304 69.5047 28.0196 69.7787 28.0196 70.0614V91.4525C28.0196 91.7395 28.1304 92.0135 28.3265 92.2135C28.5268 92.4179 28.7954 92.531 29.0724 92.531H80.9273C81.2043 92.531 81.4728 92.4179 81.6731 92.2135C81.8692 92.0135 81.98 91.7395 81.98 91.4525V70.0614C81.98 69.7787 81.8692 69.5047 81.6731 69.3004C81.4728 69.1003 81.2043 68.9873 80.9273 68.9873ZM50.8442 90.3784V84.6513H53.8789V90.3784H50.8442ZM61.1931 90.3784L61.1974 80.3895H64.2321V90.3784H61.1931ZM71.5463 90.3784V81.6941H74.581V90.3784H71.5463ZM79.8706 90.3784H76.6908V80.6244C76.6908 80.0286 76.2177 79.5503 75.6381 79.5503H70.4935C69.9138 79.5503 69.4407 80.0287 69.4407 80.6244V90.3784H66.3421V79.3111C66.3421 78.7197 65.8689 78.237 65.285 78.237H60.1447C59.5607 78.237 59.0876 78.7197 59.0876 79.3111V90.3784H55.989V83.5771C55.989 83.2901 55.8782 83.0161 55.6821 82.8161C55.4818 82.6117 55.2132 82.4986 54.9362 82.4986H49.7916C49.5103 82.4986 49.2461 82.6117 49.0457 82.8161C48.8497 83.0161 48.7388 83.2901 48.7388 83.5771V90.3784H30.1292V71.1403H79.8705L79.8706 90.3784ZM97.9466 104.294H91.8089V98.8147C91.8089 98.5277 91.6981 98.2538 91.502 98.0537C91.3017 97.8493 91.0331 97.7363 90.7561 97.7406H89.3537V60.6905C92.5547 59.2685 94.6262 56.0461 94.6304 52.4846V44.3222V44.2657V44.2092L94.6219 44.1613C94.6177 44.1396 94.6134 44.1178 94.6091 44.0961V44.0743L90.9862 30.28C89.8908 25.9619 86.0547 22.9613 81.6859 23.0004H28.3263C23.9575 22.9612 20.1257 25.9619 19.0302 30.28L15.4073 44.0743L15.403 44.0961C15.403 44.1178 15.3945 44.1396 15.3902 44.1613L15.3817 44.2135V44.2657V44.2613C15.3775 44.2831 15.3775 44.3048 15.3817 44.3266V52.4846C15.386 56.0461 17.4574 59.2685 20.6584 60.6905V97.7406H19.2433C18.9663 97.7363 18.6977 97.8493 18.4974 98.0537C18.3013 98.2538 18.1905 98.5277 18.1905 98.8147V104.294H12.0528C11.4731 104.294 11 104.772 11 105.368V111.926V111.922C11 112.517 11.4731 113 12.0528 113H97.9472C98.5269 113 99 112.517 99 111.922V105.368C99 105.085 98.8892 104.812 98.6931 104.607C98.4928 104.407 98.2279 104.294 97.9466 104.294ZM92.5206 52.4844C92.5164 55.4024 90.6921 57.9898 87.9856 58.9248H87.9728H87.9771C85.9439 59.6206 83.7062 59.277 81.9672 57.9985C80.2282 56.72 79.1967 54.6675 79.2009 52.4801V45.4223H92.5206L92.5206 52.4844ZM48.2951 25.153L46.343 43.2778L33.1346 43.2735L36.5828 25.1486L48.2951 25.153ZM59.5864 25.153L61.5386 43.2778L48.4622 43.2735L50.4144 25.1486L59.5864 25.153ZM73.4222 25.153L76.8704 43.2778H63.6653L61.7131 25.153H73.4222ZM32.9088 52.4844V45.4266H46.2329V52.4844C46.2329 56.2373 43.2492 59.2814 39.5708 59.2814C35.8924 59.2814 32.9088 56.2373 32.9088 52.4844ZM48.3431 45.4266H61.6585V52.4889C61.6585 56.2417 58.6748 59.2815 54.9964 59.2815C51.3181 59.2815 48.3344 56.2417 48.3344 52.4889L48.3431 45.4266ZM63.7731 52.4844V45.4266H77.0928V52.4844C77.0928 56.2373 74.1092 59.2814 70.4308 59.2814C66.7524 59.2814 63.7688 56.2373 63.7688 52.4844H63.7731ZM88.9373 30.8372L92.2022 43.2789L79.0146 43.2746L75.5663 25.1497H81.6785V25.1541C85.0884 25.1236 88.0806 27.467 88.9373 30.8372ZM21.0687 30.8372H21.0644C21.9212 27.4671 24.9175 25.1231 28.3274 25.1535H34.4396L30.9913 43.2784L17.7993 43.274L21.0687 30.8372ZM17.4798 52.4844V45.4266H30.7995V52.4889C30.8038 54.6718 29.7723 56.7245 28.0332 58.0029C26.2941 59.277 24.0565 59.6249 22.0276 58.9292H22.0148C19.304 57.9942 17.4798 55.4024 17.4798 52.4844ZM22.7565 61.3208C26.4349 61.921 30.0877 60.0815 31.8565 56.7374C33.3866 59.6293 36.349 61.434 39.5713 61.434C42.7935 61.434 45.7559 59.6293 47.286 56.7374C48.8162 59.6293 51.7785 61.434 55.0008 61.434C58.2231 61.434 61.1855 59.6293 62.7156 56.7374C64.2457 59.6293 67.2081 61.434 70.4304 61.434C73.6526 61.434 76.615 59.6293 78.1451 56.7374C79.914 60.0815 83.5669 61.9209 87.2451 61.3208V97.7409H22.7558L22.7565 61.3208ZM20.3014 99.8895H89.7009V104.295H20.3014V99.8895ZM96.8948 110.848H13.1063V106.443H96.8948V110.848ZM34.23 80.1813H45.0903H45.0861C45.67 80.1813 46.1431 79.6986 46.1431 79.1072V75.3413C46.1431 75.0543 46.0323 74.7803 45.8362 74.5803C45.6359 74.3759 45.3674 74.2629 45.0861 74.2672H34.23C33.9486 74.2629 33.6801 74.3759 33.4841 74.5803C33.2837 74.7804 33.1729 75.0543 33.1729 75.3413V79.1072C33.1729 79.3899 33.288 79.6639 33.4841 79.8639C33.6801 80.0683 33.9487 80.1813 34.23 80.1813ZM35.2828 76.4154H44.0332V78.0288H35.2828V76.4154ZM34.23 87.3871H45.0903H45.0861C45.67 87.3871 46.1431 86.9087 46.1431 86.313V82.5471C46.1431 82.2644 46.0323 81.9904 45.8362 81.7861C45.6359 81.586 45.3674 81.473 45.0861 81.473H34.23C33.9486 81.473 33.6801 81.586 33.4841 81.7861C33.2837 81.9904 33.1729 82.2644 33.1729 82.5471V86.313C33.1729 86.6 33.288 86.8696 33.4841 87.074C33.6801 87.274 33.9487 87.3871 34.23 87.3871ZM35.2828 83.6212H44.0332V85.2345L35.2828 85.2389V83.6212Z" fill="black"/>
</svg>
