<svg width="96" height="122" viewBox="0 0 96 122" fill="none" xmlns="http://www.w3.org/2000/svg">
<path d="M51.212 56.715V53.835L71.967 39.566V41.255L51.212 56.715ZM63.566 53.349L40.441 72.05V60.512H49.942C50.227 60.512 50.488 60.418 50.7 60.26L50.701 60.261L63.566 50.678V53.349ZM69.904 55.224L49.459 73.439H42.76L65.284 55.224H69.904ZM71.967 58.149L51.212 77.832V75.277L71.967 56.786V58.149ZM48.673 79.515H23.595V75.978H33.096C33.797 75.978 34.365 75.409 34.365 74.708V59.243C34.365 58.542 33.797 57.974 33.096 57.974H23.595V54.437H48.673V57.974H39.172C38.471 57.974 37.903 58.542 37.903 59.243V74.708C37.903 75.409 38.471 75.978 39.172 75.978H48.673V79.515ZM31.827 68.657V73.439H25.914L31.827 68.657ZM52.019 38.423H69.15L49.549 51.898H27.304L52.019 38.423ZM73.236 35.884H51.695C51.483 35.884 51.274 35.937 51.088 36.039L21.725 52.05C21.327 52.264 21.057 52.684 21.057 53.167V59.243C21.057 59.944 21.625 60.512 22.326 60.512H31.827V65.393L21.528 73.722C21.241 73.955 21.057 74.31 21.057 74.708V80.784C21.057 81.485 21.625 82.053 22.326 82.053H49.942C50.281 82.053 50.588 81.92 50.815 81.704L50.816 81.705L74.11 59.615C74.362 59.376 74.505 59.043 74.505 58.694V53.955C74.505 53.455 74.212 53.002 73.756 52.797C73.589 52.723 73.412 52.687 73.236 52.687L66.104 52.686V48.787L73.994 42.91C74.316 42.671 74.505 42.293 74.505 41.892V37.153C74.505 36.452 73.937 35.884 73.236 35.884ZM90.024 65.133C90.024 66.009 89.311 66.722 88.435 66.722C83.948 66.722 80.093 69.301 78.373 73.453C76.653 77.605 77.555 82.155 80.728 85.328C81.028 85.628 81.194 86.027 81.194 86.452C81.194 86.876 81.028 87.276 80.728 87.576L74.575 93.729C73.955 94.349 72.947 94.349 72.327 93.729C69.154 90.556 64.604 89.653 60.452 91.373C56.3 93.093 53.721 96.949 53.721 101.436C53.721 102.312 53.008 103.025 52.132 103.025H43.43C42.554 103.025 41.841 102.312 41.841 101.436C41.841 96.944 39.263 93.086 35.113 91.367C33.722 90.79 32.286 90.509 30.872 90.509C28.067 90.509 25.347 91.617 23.235 93.729C22.615 94.349 21.607 94.349 20.987 93.729L14.834 87.576C14.534 87.276 14.368 86.876 14.368 86.452C14.368 86.027 14.534 85.628 14.834 85.328C18.007 82.155 18.909 77.605 17.189 73.453C15.469 69.301 11.614 66.722 7.127 66.722C6.251 66.722 5.538 66.009 5.538 65.133V56.431C5.538 55.554 6.251 54.842 7.127 54.842C11.614 54.842 15.469 52.262 17.189 48.11C18.909 43.959 18.006 39.408 14.834 36.236C14.534 35.935 14.368 35.536 14.368 35.112C14.368 34.687 14.534 34.288 14.834 33.988L20.987 27.834C21.607 27.215 22.615 27.215 23.235 27.834C26.408 31.007 30.958 31.91 35.11 30.19C39.262 28.47 41.841 24.614 41.841 20.127C41.841 19.251 42.554 18.539 43.43 18.539H52.132C53.008 18.539 53.721 19.251 53.721 20.127C53.721 24.614 56.3 28.47 60.452 30.19C64.604 31.91 69.154 31.007 72.327 27.834C72.947 27.215 73.955 27.215 74.575 27.834L80.728 33.988C81.028 34.288 81.194 34.687 81.194 35.112C81.194 35.536 81.028 35.935 80.728 36.236C77.556 39.408 76.653 43.959 78.373 48.111C80.092 52.262 83.948 54.842 88.435 54.842C89.311 54.842 90.024 55.554 90.024 56.431V65.133ZM88.435 52.303C84.994 52.303 82.037 50.324 80.718 47.139C79.398 43.954 80.09 40.463 82.523 38.03C83.302 37.251 83.732 36.214 83.732 35.112C83.732 34.009 83.302 32.973 82.523 32.193L76.37 26.04C74.76 24.43 72.142 24.43 70.532 26.04C68.099 28.473 64.609 29.164 61.423 27.845C58.238 26.526 56.259 23.568 56.259 20.127C56.259 17.852 54.408 16 52.132 16H43.43C41.154 16 39.303 17.852 39.303 20.127C39.303 23.568 37.324 26.526 34.139 27.845C30.953 29.164 27.463 28.473 25.029 26.04C23.42 24.43 20.802 24.43 19.192 26.04L13.039 32.193C12.259 32.973 11.83 34.009 11.83 35.112C11.83 36.214 12.259 37.251 13.039 38.03C15.472 40.463 16.164 43.954 14.844 47.139C13.525 50.324 10.568 52.303 7.127 52.303C4.851 52.303 3 54.155 3 56.431V65.133C3 67.409 4.851 69.26 7.127 69.26C10.568 69.26 13.525 71.239 14.844 74.424C16.164 77.61 15.472 81.1 13.039 83.533C12.259 84.313 11.83 85.349 11.83 86.452C11.83 87.554 12.259 88.591 13.039 89.37L19.192 95.524C20.802 97.133 23.42 97.133 25.029 95.524C27.466 93.087 30.958 92.393 34.141 93.712C37.325 95.03 39.303 97.99 39.303 101.436C39.303 103.712 41.154 105.563 43.43 105.563H52.132C54.408 105.563 56.259 103.712 56.259 101.436C56.259 97.995 58.238 95.038 61.424 93.718C64.609 92.399 68.099 93.091 70.532 95.524C72.142 97.133 74.76 97.133 76.37 95.524L82.523 89.37C83.302 88.591 83.732 87.554 83.732 86.452C83.732 85.349 83.302 84.313 82.523 83.533C80.09 81.1 79.398 77.61 80.718 74.424C82.037 71.239 84.994 69.26 88.435 69.26C90.711 69.26 92.562 67.409 92.562 65.133V56.431C92.562 54.155 90.711 52.303 88.435 52.303Z" fill="black"/>
</svg>
