<svg width="110" height="135" viewBox="0 0 110 135" fill="none" xmlns="http://www.w3.org/2000/svg">
<path d="M99.3852 77.8945L95.7875 73.2461H88.0375C87.8539 73.2461 87.6742 73.3203 87.5414 73.457C87.4086 73.5898 87.3344 73.7695 87.3305 73.957V78.7226C87.3344 78.9141 87.4086 79.0937 87.5414 79.2266C87.6742 79.3594 87.8539 79.4375 88.0375 79.4375H100.565L99.3852 77.8945ZM41.8622 105.499C41.5263 105.164 41.5263 104.621 41.8622 104.285C42.1981 103.953 42.7411 103.953 43.077 104.289L46.3036 107.515C46.3349 107.55 46.3622 107.586 46.3895 107.621V107.625L46.4013 107.636L46.4247 107.668L46.4208 107.671C46.4325 107.679 46.4364 107.691 46.4442 107.703L46.4677 107.734H46.4638C46.581 107.976 46.581 108.253 46.4638 108.492L46.452 108.503L46.456 108.527L46.4442 108.543C46.4364 108.554 46.4325 108.566 46.4208 108.574L46.4091 108.589V108.597L46.3856 108.621L46.3895 108.617C46.3622 108.656 46.3349 108.691 46.3036 108.722L43.077 111.949C42.7372 112.269 42.2059 112.261 41.8778 111.933C41.5497 111.605 41.5419 111.074 41.8622 110.738L43.6317 108.972H21.6437C19.0734 108.961 16.9875 106.875 16.9835 104.3V92.0774C16.9757 91.8469 17.0616 91.6204 17.2218 91.4524C17.3858 91.2844 17.6085 91.1907 17.839 91.1907C18.0733 91.1907 18.296 91.2844 18.46 91.4524C18.6202 91.6204 18.7061 91.8469 18.6983 92.0774V104.315C18.6983 105.944 20.0186 107.261 21.6475 107.261H43.6315L41.8622 105.499ZM73.5462 35.8435C73.0735 35.8435 72.6868 35.4607 72.6868 34.9841C72.6868 34.5115 73.0735 34.1286 73.5462 34.1286H87.1712C89.7454 34.1326 91.8314 36.2185 91.8353 38.7967V53.2306L93.6048 51.4572V51.4612C93.9407 51.1252 94.4837 51.1213 94.8157 51.4572C95.1516 51.7893 95.1555 52.3322 94.8196 52.6681L91.593 55.8947C91.5579 55.926 91.5227 55.9572 91.4875 55.9807H91.4797L91.4719 56.0002L91.4563 56.0119V56.0158L91.4407 56.0237L91.4016 56.0393V56.0432H91.386V56.051L91.3743 56.0549C91.136 56.1721 90.8586 56.1721 90.6203 56.0549H90.5969L90.5813 56.051V56.0549H90.5657V56.051L90.5344 56.0354L90.5227 56.0276L90.5188 56.0237L90.4914 56.0002L90.4797 55.9885H90.468C90.4328 55.9651 90.4016 55.9338 90.3703 55.9026L87.1437 52.676C86.8117 52.34 86.8117 51.801 87.1437 51.4651C87.4758 51.133 88.0187 51.133 88.3507 51.4651L90.1202 53.2385L90.1242 38.7975C90.1163 37.1686 88.8 35.8522 87.1711 35.8483L73.5462 35.8435ZM16.5232 49.2415H58.2072L58.2111 43.5188H16.5231L16.5232 49.2415ZM60.0622 87.1985C61.8747 87.1946 63.6364 87.7844 65.0778 88.8782H79.3078V61.3162C79.3 60.0974 78.3156 59.1092 77.0969 59.1053H48.0189C46.8001 59.1092 45.8158 60.0975 45.808 61.3162V88.8782H55.058C56.4994 87.7844 58.2572 87.1985 60.0658 87.1985H60.0622ZM66.7653 90.5891H66.7692C67.6403 91.7727 68.1794 93.1672 68.3317 94.6321H79.3087V90.5891H66.7653ZM51.8043 94.6321C51.9606 93.1712 52.4996 91.7766 53.3668 90.5891H43.3668V94.6321H51.8043ZM64.7343 90.843C62.5077 88.6086 59.0155 88.2571 56.3905 90.0071C53.7694 91.7571 52.746 95.1165 53.9491 98.0305C55.1522 100.945 58.2499 102.601 61.3436 101.987C64.4334 101.374 66.6639 98.6594 66.6639 95.507C66.6639 93.757 65.9726 92.0774 64.7343 90.843ZM91.1133 87.2102H91.1172C95.1953 87.4211 98.5195 90.5657 98.957 94.6321H101.219H101.215C101.355 94.636 101.488 94.5813 101.586 94.4798C101.684 94.3821 101.738 94.2493 101.734 94.1126V81.1396H88.0393C87.3987 81.1435 86.7815 80.8896 86.3284 80.4325C85.8714 79.9794 85.6175 79.3622 85.6214 78.7216V73.9521C85.6214 72.6162 86.7034 71.5302 88.0394 71.5302H94.4691L92.6293 69.1435C92.5824 69.0771 92.5238 69.0224 92.4535 68.9873C92.3754 68.956 92.2934 68.9443 92.2113 68.9482H81.0203V94.6322H82.4305H82.4266C82.8602 90.5658 86.1844 87.4174 90.2664 87.2103C90.3016 87.2064 90.3367 87.2064 90.3719 87.2103C90.411 87.2103 90.4422 87.2064 90.4774 87.2064H90.9031C90.9422 87.2064 90.9774 87.2103 91.0086 87.2103C91.0438 87.2064 91.0781 87.2063 91.1133 87.2102ZM95.3555 90.843C94.2422 89.7297 92.7657 89.05 91.1993 88.9328C91.172 88.9289 91.1407 88.9289 91.1134 88.9328C91.086 88.9289 91.0587 88.9289 91.0313 88.9328C91.0001 88.9328 90.9727 88.9289 90.9454 88.9289H90.8595H90.7774H90.6055H90.5196H90.4337C90.4063 88.9289 90.379 88.9328 90.3516 88.9328C90.3243 88.9289 90.2931 88.9289 90.2657 88.9328C90.2384 88.9289 90.211 88.9289 90.1837 88.9328C87.0939 89.1711 84.5899 91.5266 84.1603 94.5969C83.7345 97.6672 85.5001 100.616 88.4064 101.691C91.3126 102.765 94.5744 101.671 96.2462 99.0618C97.918 96.4524 97.5469 93.0306 95.3555 90.843ZM57.7655 57.39H65.7499L65.746 41.367L37.367 24L9 41.367V82.222H16.9844V50.956H15.6719C15.4453 50.956 15.2266 50.8662 15.0625 50.706C14.9024 50.5458 14.8125 50.3271 14.8125 50.0966V42.6669C14.8125 42.4365 14.9024 42.2177 15.0625 42.0575C15.2266 41.8974 15.4453 41.8075 15.6719 41.8075H59.0739C59.5466 41.8075 59.9294 42.1943 59.9294 42.6669V50.1005V50.0966C59.9294 50.5693 59.5466 50.956 59.0739 50.956H57.7653L57.7655 57.39Z" fill="black"/>
</svg>
