<svg xmlns="http://www.w3.org/2000/svg" xmlns:xlink="http://www.w3.org/1999/xlink" version="1.1" x="0px" y="0px" viewBox="0 0 5000 6250" style="enable-background:new 0 0 5000 5000;" xml:space="preserve"><g><g><path d="M4035,1539.2H965c-14.9,0-27.1-12.1-27.1-27.1v-494c0-14.9,12.1-27.1,27.1-27.1h3069.9c14.9,0,27.1,12.1,27.1,27.1v494.1    C4062,1527.1,4049.9,1539.2,4035,1539.2z M992.1,1485.1h3015.8v-439.9H992.1V1485.1z"/><g><path d="M1924.6,1503.5c-14.9,0-27.1-12.1-27.1-27.1v-445.3c0-14.9,12.1-27.1,27.1-27.1s27.1,12.1,27.1,27.1v445.3     C1951.8,1491.3,1939.6,1503.5,1924.6,1503.5z"/><path d="M3075.4,1523c-14.9,0-27.1-12.1-27.1-27.1v-464.8c0-14.9,12.1-27.1,27.1-27.1c15,0,27.1,12.1,27.1,27.1v464.8     C3102.4,1510.9,3090.3,1523,3075.4,1523z"/><g><path d="M1459.1,1539.2c-7.2,0-14-2.8-19.2-8l-494.1-494c-10.6-10.6-10.6-27.7,0-38.3s27.7-10.6,38.3,0l474.4,474.4l446.4-473.8      c10.3-10.9,27.4-11.4,38.3-1.1s11.4,27.4,1.1,38.3l-465.6,494.1c-5,5.4-12,8.4-19.3,8.5      C1459.4,1539.2,1459.3,1539.2,1459.1,1539.2z"/><path d="M1924.6,1539.2c-7.2,0-14.4-2.8-19.6-8.4l-446.5-470.7L984,1531.3c-10.6,10.5-27.8,10.5-38.3-0.1      c-10.5-10.6-10.5-27.8,0.1-38.3l494.1-490.9c5.1-5.1,12.2-8,19.5-7.9c7.3,0.1,14.3,3.2,19.3,8.4l465.6,490.9      c10.3,10.8,9.8,28-1,38.3C1938.1,1536.8,1931.4,1539.2,1924.6,1539.2z"/></g><g><path d="M3540.9,1545.8c-0.1,0-0.2,0-0.5,0c-7.4-0.1-14.4-3.2-19.4-8.7l-465.6-500.6c-10.1-10.9-9.6-28,1.4-38.3      c10.9-10.1,28-9.6,38.3,1.4l446.3,479.8L4015.7,999c10.5-10.6,27.7-10.7,38.3-0.2c10.6,10.5,10.7,27.7,0.2,38.3l-494.1,500.7      C3555.1,1542.9,3548.1,1545.8,3540.9,1545.8z"/><path d="M4035,1539.2c-7,0-13.9-2.6-19.2-8l-474.4-474.4l-446.4,473.9c-10.3,10.9-27.4,11.4-38.3,1.1s-11.4-27.4-1.1-38.3      l465.6-494.1c5-5.4,12-8.4,19.3-8.5c7.3-0.1,14.4,2.7,19.6,8l494.1,494.1c10.6,10.6,10.6,27.7,0,38.3      C4048.8,1536.6,4041.8,1539.2,4035,1539.2z"/></g></g><g><g><g><path d="M2500,1708.3c-14.9,0-27.1-12.1-27.1-27.1v-169.1c0-14.9,12.1-27.1,27.1-27.1c15,0,27.1,12.1,27.1,27.1v169.1       C2527.1,1696.2,2514.9,1708.3,2500,1708.3z"/></g><path d="M2575.8,1865.4h-151.7c-8,0-15.6-3.5-20.7-9.7c-5.1-6.2-7.3-14.3-5.9-22.1l27.1-151.7c2.3-12.9,13.6-22.3,26.7-22.3      h97.5c13.1,0,24.4,9.5,26.7,22.3l27.1,151.7c1.4,7.9-0.8,16-5.9,22.1C2591.4,1861.8,2583.9,1865.4,2575.8,1865.4z       M2456.6,1811.2h87l-17.4-97.5h-52.2L2456.6,1811.2z"/></g><g><g><path d="M2929.9,1684.6c-9.2,0-18.2-4.7-23.3-13.2l-86.4-145.2c-7.6-12.9-3.4-29.5,9.5-37.2s29.5-3.4,37.2,9.5l86.4,145.2       c7.6,12.9,3.4,29.5-9.5,37.2C2939.4,1683.3,2934.6,1684.6,2929.9,1684.6z"/></g><path d="M2944.9,1858.3c-3,0-6-0.5-9-1.5c-7.5-2.6-13.6-8.6-16.4-16.1l-54.3-144.2c-4.7-12.3,0.2-26.1,11.5-32.8l83.8-49.8      c11.3-6.7,25.8-4.3,34.3,5.6l100.9,116.5c5.2,6,7.5,14.1,6.3,22c-1.3,7.9-6,14.8-12.9,18.9l-130.3,77.6      C2954.6,1857,2949.8,1858.3,2944.9,1858.3z M2924.1,1698.7l34.9,92.7l74.8-44.5l-64.9-74.9L2924.1,1698.7z"/></g><g><g><path d="M2070.1,1684.6c-4.7,0-9.5-1.3-13.8-3.8c-12.9-7.6-17.1-24.3-9.5-37.2l86.4-145.2c7.6-12.9,24.3-17.1,37.2-9.5       s17.1,24.3,9.5,37.2l-86.4,145.2C2088.3,1679.8,2079.3,1684.6,2070.1,1684.6z"/></g><path d="M2055.1,1858.3c-4.8,0-9.6-1.3-13.9-3.8l-130.3-77.6c-6.8-4.1-11.6-11.1-12.9-18.9c-1.3-7.9,1-16,6.3-22l100.9-116.5      c8.5-9.9,23-12.3,34.3-5.6l83.8,49.8c11.3,6.7,16.1,20.5,11.5,32.8l-54.3,144.2c-2.8,7.5-8.8,13.3-16.4,16.1      C2061.1,1857.8,2058,1858.3,2055.1,1858.3z M1966.4,1746.9l74.8,44.5l34.9-92.7l-44.8-26.7L1966.4,1746.9z"/></g></g><g><g><g><path d="M1459,3988.7H964.9c-14.9,0-27.1-12.1-27.1-27.1V1018.1c0-14.9,12.1-27.1,27.1-27.1H1459c14.9,0,27.1,12.1,27.1,27.1       v2943.5C1486,3976.6,1473.9,3988.7,1459,3988.7z M991.9,3934.6h439.9V1045.1H991.9V3934.6z"/><path d="M1445.8,2004.8h-445.3c-14.9,0-27.1-12.1-27.1-27.1s12.1-27.1,27.1-27.1h445.3c14.9,0,27.1,12.1,27.1,27.1       S1460.9,2004.8,1445.8,2004.8z"/><path d="M1445.8,2580.1H981.1c-14.9,0-27.1-12.1-27.1-27.1c0-15,12.1-27.1,27.1-27.1h464.8c14.9,0,27.1,12.1,27.1,27.1       C1473,2568.1,1460.9,2580.1,1445.8,2580.1z"/><path d="M1445.8,3155.5H981.1c-14.9,0-27.1-12.1-27.1-27.1s12.1-27.1,27.1-27.1h464.8c14.9,0,27.1,12.1,27.1,27.1       S1460.9,3155.5,1445.8,3155.5z"/><path d="M1459,3155.5c-7.6,0-15.2-3.2-20.5-9.5l-494.1-575.4c-8.7-10.1-8.7-25.2,0-35.3l477.2-555.8l-475.3-447.8       c-5.4-5-8.4-12-8.5-19.3c-0.1-7.3,2.7-14.4,8-19.6l494.1-494.1c10.6-10.6,27.7-10.6,38.3,0s10.6,27.7,0,38.3l-474.4,474.4       l473.8,446.4c10.5,9.9,11.4,26.3,1.9,37.4L1000.6,2553l478.9,557.7c9.8,11.4,8.4,28.5-2.8,38.2       C1471.4,3153.3,1465.1,3155.5,1459,3155.5z"/><path d="M964.8,3155.5c-6.3,0-12.5-2.2-17.7-6.5c-11.4-9.8-12.7-26.9-2.8-38.2l478.9-557.7l-478.9-557.7       c-9.5-10.9-8.6-27.4,1.9-37.3l470.7-446.4l-471.3-474.5c-10.5-10.6-10.5-27.8,0.1-38.3c10.6-10.5,27.8-10.5,38.3,0.1       l490.9,494.1c5.1,5.1,8,12.2,7.9,19.5c-0.1,7.3-3.2,14.3-8.4,19.3l-472.1,447.8l477.3,555.8c8.7,10.1,8.7,25.2,0,35.3       l-494.1,575.4C980,3152.3,972.4,3155.5,964.8,3155.5z"/></g><path d="M1211.9,3898.4c-96.6,0-175.2-78.5-175.2-175.2s78.5-175.2,175.2-175.2c96.7,0,175.2,78.5,175.2,175.2      S1308.5,3898.4,1211.9,3898.4z M1211.9,3602.3c-66.7,0-121.1,54.3-121.1,121.1c0,66.8,54.3,121.1,121.1,121.1      c66.8,0,121.1-54.3,121.1-121.1C1333,3656.5,1278.6,3602.3,1211.9,3602.3z"/><path d="M1211.9,3481.7c-61.1,0-110.9-49.7-110.9-110.9c0-61.2,49.7-110.9,110.9-110.9c61.2,0,110.9,49.7,110.9,110.9      C1322.8,3431.9,1273,3481.7,1211.9,3481.7z M1211.9,3314.1c-31.2,0-56.8,25.4-56.8,56.8c0,31.3,25.4,56.8,56.8,56.8      c31.3,0,56.8-25.4,56.8-56.8C1268.7,3339.5,1243.1,3314.1,1211.9,3314.1z"/></g><g><g><path d="M4035.2,3997.7h-494.1c-14.9,0-27.1-12.1-27.1-27.1V1018c0-14.9,12.1-27.1,27.1-27.1h494.1c14.9,0,27.1,12.1,27.1,27.1       v2952.6C4062.3,3985.6,4050.2,3997.7,4035.2,3997.7z M3568.2,3943.6h439.9V1045.1h-439.9V3943.6z"/><path d="M4022.1,2004.8h-445.3c-14.9,0-27.1-12.1-27.1-27.1s12.1-27.1,27.1-27.1h445.3c14.9,0,27.1,12.1,27.1,27.1       S4037.2,2004.8,4022.1,2004.8z"/><path d="M4022.1,2580.1h-464.8c-14.9,0-27.1-12.1-27.1-27.1c0-15,12.1-27.1,27.1-27.1h464.8c14.9,0,27.1,12.1,27.1,27.1       C4049.3,2568.1,4037.2,2580.1,4022.1,2580.1z"/><path d="M4022.1,3155.5h-464.8c-14.9,0-27.1-12.1-27.1-27.1s12.1-27.1,27.1-27.1h464.8c14.9,0,27.1,12.1,27.1,27.1       S4037.2,3155.5,4022.1,3155.5z"/><path d="M4035.2,3155.5c-7.6,0-15.2-3.2-20.5-9.5l-494.1-575.4c-8.7-10.1-8.7-25.2,0-35.3l477.2-555.8l-475.3-447.7       c-5.4-5-8.4-12-8.6-19.3s2.7-14.4,8-19.6L4016.1,999c10.6-10.6,27.7-10.6,38.3,0s10.6,27.7,0,38.3L3580,1511.6l473.8,446.4       c10.5,9.9,11.4,26.3,1.9,37.4l-478.9,557.7l478.9,557.7c9.8,11.4,8.4,28.5-2.9,38.2C4047.7,3153.3,4041.4,3155.5,4035.2,3155.5       z"/><path d="M3541,3155.5c-6.3,0-12.5-2.2-17.7-6.5c-11.4-9.8-12.7-26.9-2.8-38.2l478.9-557.7l-478.9-557.7       c-9.5-10.9-8.6-27.4,1.9-37.3l470.7-446.4l-471.3-474.5c-10.5-10.6-10.5-27.8,0.1-38.3c10.6-10.6,27.8-10.5,38.3,0.1       l490.9,494.1c5.1,5.1,8,12.2,7.9,19.5c-0.1,7.3-3.2,14.3-8.4,19.3l-472.2,447.7l477.3,555.8c8.7,10.1,8.7,25.2,0,35.3       L3561.7,3146C3556.3,3152.3,3548.7,3155.5,3541,3155.5z"/></g><path d="M3788.1,3907.6c-96.6,0-175.2-78.5-175.2-175.2c0-96.6,78.5-175.2,175.2-175.2s175.2,78.5,175.2,175.2      C3963.3,3828.9,3884.8,3907.6,3788.1,3907.6z M3788.1,3611.3c-66.7,0-121.1,54.3-121.1,121.1c0,66.8,54.3,121.1,121.1,121.1      c66.8,0,121.1-54.3,121.1-121.1C3909.2,3665.5,3854.9,3611.3,3788.1,3611.3z"/><path d="M3788.1,3490.8c-61.1,0-110.9-49.7-110.9-110.9c0-61.1,49.7-110.9,110.9-110.9s110.9,49.7,110.9,110.9      S3849.3,3490.8,3788.1,3490.8z M3788.1,3323.1c-31.2,0-56.8,25.4-56.8,56.8c0,31.2,25.4,56.8,56.8,56.8s56.8-25.4,56.8-56.8      C3844.9,3348.5,3819.4,3323.1,3788.1,3323.1z"/></g></g><path d="M3336.9,3397.9H1663.1c-42.9,0-77.6-34.9-77.6-77.6V2312.6c0-42.9,34.9-77.6,77.6-77.6h1673.6c42.9,0,77.6,34.9,77.6,77.6    v1007.6C3414.5,3363,3379.6,3397.9,3336.9,3397.9z M1663.1,2289.1c-13,0-23.5,10.5-23.5,23.5v1007.6c0,13,10.5,23.5,23.5,23.5    h1673.6c13,0,23.5-10.5,23.5-23.5V2312.6c0-13-10.5-23.5-23.5-23.5H1663.1z"/><path d="M3387.4,3723.2c-14.9,0-27.1-12.1-27.1-27.1v-74.8c0-20.5-16.6-37.2-37.2-37.2H1676.9c-20.5,0-37.2,16.6-37.2,37.2v74.8    c0,14.9-12.1,27.1-27.1,27.1s-27.1-12.1-27.1-27.1v-74.8c0-50.4,41-91.4,91.4-91.4h1646.2c50.4,0,91.4,41,91.4,91.4v74.8    C3414.5,3711.1,3402.3,3723.2,3387.4,3723.2z"/><path d="M3323.1,4009.1H1676.9c-50.4,0-91.4-41-91.4-91.4v-74.8c0-50.4,41-91.4,91.4-91.4h1646.2c50.4,0,91.4,41,91.4,91.4v74.8    C3414.5,3968.2,3373.5,4009.1,3323.1,4009.1z M1676.9,3805.9c-20.5,0-37.2,16.6-37.2,37.2v74.8c0,20.5,16.6,37.2,37.2,37.2h1646.2    c20.5,0,37.2-16.6,37.2-37.2V3843c0-20.5-16.6-37.2-37.2-37.2H1676.9z"/></g></g><text x="0" y="5015" fill="#000000" font-size="5px" font-weight="bold" font-family="'Helvetica Neue', Helvetica, Arial-Unicode, Arial, Sans-serif">Created by bsd studio</text><text x="0" y="5020" fill="#000000" font-size="5px" font-weight="bold" font-family="'Helvetica Neue', Helvetica, Arial-Unicode, Arial, Sans-serif">from the Noun Project</text></svg>