<svg id="Layer_1" data-name="Layer 1" xmlns="http://www.w3.org/2000/svg" viewBox="0 0 1080 1080"><defs><style>.cls-1{fill:#fff;}.cls-2{fill:#f9ed32;}.cls-3{fill:#f7941d;}</style></defs><path class="cls-1" d="M651.85,616.84h.31v-.22Z"/><path class="cls-2" d="M651.85,616.84h.31v-.22Zm46.81,33.48,6.5-2.88C703,648.32,700.79,649.28,698.66,650.32Z"/><path class="cls-3" d="M705.16,647.44l-6.5,2.88C700.79,649.28,703,648.32,705.16,647.44Z"/><path class="cls-3" d="M836.48,313.7H705.16V250.11h-53V563.84H42V688.41H188.47a154.92,154.92,0,0,0-9.78,54.32c0,85.8,69.81,155.61,155.61,155.61s155.62-69.81,155.62-155.61a154.92,154.92,0,0,0-9.78-54.32H597.39a154.92,154.92,0,0,0-9.78,54.32c0,85.8,69.81,155.61,155.61,155.61s155.62-69.81,155.62-155.61a154.75,154.75,0,0,0-14.66-65.91h14.89a58.05,58.05,0,0,0,58-58V434.28ZM221.72,635.41H95V616.84H242.93A156.15,156.15,0,0,0,221.72,635.41ZM334.3,845.34A102.56,102.56,0,1,1,436.92,742.73,102.73,102.73,0,0,1,334.3,845.34ZM630.64,635.41H446.89a156.15,156.15,0,0,0-21.21-18.57H651.85l.31-.22v.22h-.31A156.15,156.15,0,0,0,630.64,635.41ZM743.22,845.34a102.56,102.56,0,0,1-87-156.93,100.34,100.34,0,0,1,8.44-11.59,103.16,103.16,0,0,1,34-26.5c2.13-1,4.29-2,6.5-2.88a102.61,102.61,0,1,1,38.06,197.9ZM904.06,618.83a5,5,0,0,1-5,5H843.49a155.53,155.53,0,0,0-138.33-32V366.7H814.52l89.54,89.54Z"/><path class="cls-1" d="M698.66,650.32l6.5-2.88C703,648.32,700.79,649.28,698.66,650.32Z"/><path class="cls-2" d="M698.66,650.32l6.5-2.88C703,648.32,700.79,649.28,698.66,650.32Z"/><path class="cls-2" d="M651.85,616.84h.31v-.22Z"/></svg>